<svg xmlns="http://www.w3.org/2000/svg" viewBox="0 0 64 64" width="64" height="64">
  <defs>
    <linearGradient id="grad" x1="0" y1="0" x2="1" y2="1">
      <stop offset="0" stop-color="#ef4444"/>
      <stop offset="1" stop-color="#06b6d4"/>
    </linearGradient>
    <filter id="glow" x="-60%" y="-60%" width="220%" height="220%">
      <feGaussianBlur stdDeviation="3"/>
    </filter>
  </defs>
  <!-- gradient glow halo -->
  <rect x="6" y="6" width="52" height="52" rx="16" fill="url(#grad)" opacity="0.6" filter="url(#glow)"/>
  <!-- dark tile with gradient border -->
  <rect x="9.5" y="9.5" width="45" height="45" rx="13" fill="#111827" stroke="url(#grad)" stroke-width="2.5"/>
  <!-- lucide trash-2, cyan -->
  <g transform="translate(32 32.5) scale(1.55) translate(-12 -12)"
     fill="none" stroke="#22d3ee" stroke-width="2.1" stroke-linecap="round" stroke-linejoin="round">
    <path d="M3 6h18"/>
    <path d="M19 6v14a2 2 0 0 1-2 2H7a2 2 0 0 1-2-2V6"/>
    <path d="M8 6V4a2 2 0 0 1 2-2h4a2 2 0 0 1 2 2v2"/>
    <line x1="10" x2="10" y1="11" y2="17"/>
    <line x1="14" x2="14" y1="11" y2="17"/>
  </g>
</svg>
